<svg width="399" height="338" viewBox="0 0 399 338" fill="none" xmlns="http://www.w3.org/2000/svg">
<path d="M138.419 270.615C136.762 271.626 135.43 271.543 134.67 270.389C134.085 269.497 134.088 269.325 134.713 267.074C135.075 265.769 135.814 263.088 136.356 261.117C136.902 259.145 138.017 255.113 138.839 252.156C141.275 243.396 141.645 241.944 142.424 238.048C143.73 231.514 143.41 227.887 140.676 218.284C138.355 210.119 137.673 205.782 137.662 199.108C137.648 188.803 139.596 180.584 144.254 171.33C146.88 166.107 150.486 160.247 151.085 160.226C151.197 160.222 151.168 161.064 151.021 162.1C150.009 169.204 151.523 179.807 154.44 186.058L155.345 187.997L155.086 183.875C154.58 175.824 154.803 167.573 155.653 162.788C157.996 149.591 164.466 138.72 178.244 124.82C180.637 122.408 182.726 120.433 182.883 120.433C183.045 120.433 183.124 122.486 183.059 125.003C182.923 130.487 183.332 133.623 185.079 140.505C186.364 145.551 186.411 145.655 186.644 144.089C186.78 143.2 186.902 141.429 186.92 140.146C186.995 134.96 188.517 127.053 190.548 121.329C192.736 115.146 195.596 110.418 200.239 105.303C202.927 102.35 209.855 96.3425 210.279 96.6042C210.404 96.683 210.29 97.7619 210.02 99.0021C209.464 101.583 209.353 111.397 209.848 114.16C210.695 118.881 211.126 120.791 211.341 120.791C211.47 120.791 211.779 119.218 212.026 117.296C213.239 107.837 216.059 99.3462 220.028 93.1919C223.185 88.2958 229.005 82.5895 236.817 76.7256C247.689 68.5677 254.603 65.5713 259.099 67.0767C261.097 67.7434 262.536 69.0516 263.552 71.1198C264.686 73.4424 266.042 79.8906 266.645 85.8441C267.021 89.5718 266.996 90.708 266.469 94.3747C265.134 103.629 262.188 109.737 255.263 117.608C252.69 120.533 245.726 127.082 241.399 130.644C240.469 131.411 239.755 132.089 239.816 132.15C239.877 132.211 241.478 131.63 243.376 130.859C250.039 128.15 255.948 124.15 261.388 118.666C263.161 116.877 264.714 115.415 264.84 115.415C265.489 115.415 263.132 125.422 261.417 129.931C256.587 142.641 244.596 152.509 224.617 160.215L224.089 160.419C220.387 161.846 218.958 162.398 219.001 162.563C219.027 162.663 219.637 162.613 220.623 162.53L220.849 162.512C230.523 161.713 239.21 159.369 247.323 155.38C248.672 154.713 249.727 154.279 249.666 154.415C247.968 158.054 242.59 167.075 239.579 171.33C233.211 180.323 226.307 186.904 218.298 191.613C212.625 194.947 208.377 196.499 197.706 199.122C195.632 199.631 192.083 200.639 189.812 201.359L185.686 202.667L187.48 202.976C190.027 203.409 199.134 202.678 204.319 201.624C209.328 200.603 213.307 199.359 216.992 197.664C218.424 197.004 219.594 196.578 219.59 196.714C219.586 197.058 214.94 203.872 212.615 206.94C209.934 210.481 204.581 215.861 200.935 218.675C192.884 224.886 186.213 227.754 172.23 231.012C164.175 232.89 160.856 234.274 156.173 237.711C155.136 238.475 154.29 238.969 154.293 238.815C154.308 236.998 160.824 221.123 165.072 212.546C175.477 191.545 183.953 179.298 206.859 152.154C227.505 127.691 235.668 116.178 243.792 100.056C245.299 97.0666 244.646 97.5218 242.723 100.801C240.731 104.203 235.137 112.54 232.199 116.49C225.701 125.228 218.948 133.067 201.624 151.975C180.677 174.842 171.857 186.907 162.198 205.918C154.193 221.679 148.775 236.969 144.419 256.099C142.09 266.328 140.956 269.07 138.419 270.615Z" fill="black"/>
</svg>
